<mxfile host="65bd71144e">
    <diagram id="gO7sfptqHuHsLTNLBWQI" name="第 1 页">
        <mxGraphModel dx="585" dy="631" grid="1" gridSize="10" guides="1" tooltips="1" connect="1" arrows="1" fold="1" page="1" pageScale="1" pageWidth="827" pageHeight="1169" math="0" shadow="0">
            <root>
                <mxCell id="0"/>
                <mxCell id="1" parent="0"/>
                <mxCell id="5" value="Application - 系统的Context和各种配置信息" style="rounded=0;whiteSpace=wrap;html=1;" vertex="1" parent="1">
                    <mxGeometry x="80" y="440" width="710" height="60" as="geometry"/>
                </mxCell>
                <mxCell id="6" value="" style="rounded=0;whiteSpace=wrap;html=1;" vertex="1" parent="1">
                    <mxGeometry x="180" y="350" width="610" height="60" as="geometry"/>
                </mxCell>
                <mxCell id="7" value="数据层" style="rounded=0;whiteSpace=wrap;html=1;" vertex="1" parent="1">
                    <mxGeometry x="80" y="350" width="90" height="60" as="geometry"/>
                </mxCell>
                <mxCell id="9" value="Document" style="rounded=1;whiteSpace=wrap;html=1;" vertex="1" parent="1">
                    <mxGeometry x="190" y="360" width="90" height="40" as="geometry"/>
                </mxCell>
                <mxCell id="10" value="Label" style="rounded=1;whiteSpace=wrap;html=1;" vertex="1" parent="1">
                    <mxGeometry x="460" y="360" width="90" height="40" as="geometry"/>
                </mxCell>
                <mxCell id="11" value="Attri" style="rounded=1;whiteSpace=wrap;html=1;" vertex="1" parent="1">
                    <mxGeometry x="570" y="360" width="90" height="40" as="geometry"/>
                </mxCell>
                <mxCell id="12" value="Change History" style="rounded=1;whiteSpace=wrap;html=1;" vertex="1" parent="1">
                    <mxGeometry x="300" y="360" width="140" height="40" as="geometry"/>
                </mxCell>
                <mxCell id="13" value="功能模块层" style="rounded=0;whiteSpace=wrap;html=1;" vertex="1" parent="1">
                    <mxGeometry x="80" y="260" width="90" height="60" as="geometry"/>
                </mxCell>
                <mxCell id="14" value="" style="rounded=0;whiteSpace=wrap;html=1;" vertex="1" parent="1">
                    <mxGeometry x="180" y="260" width="520" height="60" as="geometry"/>
                </mxCell>
                <mxCell id="15" value="Manager Document" style="rounded=1;whiteSpace=wrap;html=1;" vertex="1" parent="1">
                    <mxGeometry x="190" y="270" width="110" height="40" as="geometry"/>
                </mxCell>
                <mxCell id="16" value="Manager Label" style="rounded=1;whiteSpace=wrap;html=1;" vertex="1" parent="1">
                    <mxGeometry x="320" y="270" width="110" height="40" as="geometry"/>
                </mxCell>
                <mxCell id="17" value="Manager Attribute" style="rounded=1;whiteSpace=wrap;html=1;" vertex="1" parent="1">
                    <mxGeometry x="450" y="270" width="130" height="40" as="geometry"/>
                </mxCell>
                <mxCell id="18" value="业务逻辑层" style="rounded=0;whiteSpace=wrap;html=1;" vertex="1" parent="1">
                    <mxGeometry x="80" y="180" width="90" height="60" as="geometry"/>
                </mxCell>
                <mxCell id="20" value="" style="rounded=0;whiteSpace=wrap;html=1;" vertex="1" parent="1">
                    <mxGeometry x="180" y="180" width="520" height="60" as="geometry"/>
                </mxCell>
                <mxCell id="21" value="Init DataLabel" style="rounded=1;whiteSpace=wrap;html=1;" vertex="1" parent="1">
                    <mxGeometry x="210" y="190" width="110" height="40" as="geometry"/>
                </mxCell>
                <mxCell id="23" value="Change DataLabel" style="rounded=1;whiteSpace=wrap;html=1;" vertex="1" parent="1">
                    <mxGeometry x="340" y="190" width="110" height="40" as="geometry"/>
                </mxCell>
                <mxCell id="25" value="Manager Shape Data" style="rounded=1;whiteSpace=wrap;html=1;" vertex="1" parent="1">
                    <mxGeometry x="680" y="360" width="90" height="40" as="geometry"/>
                </mxCell>
                <mxCell id="27" value="Make Shape" style="rounded=1;whiteSpace=wrap;html=1;" vertex="1" parent="1">
                    <mxGeometry x="600" y="270" width="90" height="40" as="geometry"/>
                </mxCell>
                <mxCell id="28" value="Display Shape" style="rounded=1;whiteSpace=wrap;html=1;" vertex="1" parent="1">
                    <mxGeometry x="470" y="190" width="90" height="40" as="geometry"/>
                </mxCell>
                <mxCell id="29" value="应用层" style="rounded=0;whiteSpace=wrap;html=1;" vertex="1" parent="1">
                    <mxGeometry x="80" y="100" width="90" height="60" as="geometry"/>
                </mxCell>
                <mxCell id="30" value="" style="rounded=0;whiteSpace=wrap;html=1;" vertex="1" parent="1">
                    <mxGeometry x="180" y="100" width="520" height="60" as="geometry"/>
                </mxCell>
                <mxCell id="31" value="Show Document" style="rounded=1;whiteSpace=wrap;html=1;" vertex="1" parent="1">
                    <mxGeometry x="210" y="110" width="110" height="40" as="geometry"/>
                </mxCell>
                <mxCell id="32" value="Definite DataLabel" style="rounded=1;whiteSpace=wrap;html=1;" vertex="1" parent="1">
                    <mxGeometry x="340" y="110" width="110" height="40" as="geometry"/>
                </mxCell>
                <mxCell id="33" value="Control DataLabel" style="rounded=1;whiteSpace=wrap;html=1;" vertex="1" parent="1">
                    <mxGeometry x="470" y="110" width="110" height="40" as="geometry"/>
                </mxCell>
                <mxCell id="34" value="Display Shape" style="rounded=1;whiteSpace=wrap;html=1;" vertex="1" parent="1">
                    <mxGeometry x="580" y="190" width="90" height="40" as="geometry"/>
                </mxCell>
            </root>
        </mxGraphModel>
    </diagram>
</mxfile>